<svg width="46" height="8" viewBox="0 0 46 8" fill="none" xmlns="http://www.w3.org/2000/svg">
<g id="Group 1">
<path id="Vector" d="M7.45119 0.181885H0.88613L0.466797 2.17067H2.58769L1.39514 7.8183H3.80447L4.99702 2.17067H7.01974L7.45119 0.181885Z" fill="#A70123"/>
<path id="Vector_2" d="M12.1256 7.81878H14.6452C14.667 6.97164 14.6477 6.31962 14.5846 5.86272C14.5228 5.40582 14.4101 5.07132 14.2477 4.85681C14.0853 4.6423 13.8526 4.48111 13.5509 4.36961V4.34779C13.8684 4.27387 14.1774 4.14783 14.4804 3.9721C14.7822 3.79515 15.0343 3.55155 15.2367 3.24251C15.4403 2.93346 15.5409 2.56503 15.5409 2.13722C15.5409 1.73971 15.4403 1.39309 15.2367 1.09859C15.0343 0.804089 14.7398 0.577459 14.3519 0.418695C13.9653 0.259931 13.4999 0.181152 12.9546 0.181152H9.06426L7.45117 7.81757H9.8605L10.4241 5.17676H11.053C11.2518 5.17676 11.4239 5.20464 11.5669 5.25917C11.7099 5.31492 11.8263 5.39006 11.9147 5.4858C12.025 5.61912 12.1026 5.82272 12.1474 6.09904C12.1911 6.37537 12.2056 6.71592 12.1911 7.12192C12.1753 7.37158 12.1547 7.60427 12.1244 7.81757M11.8929 3.68487H10.7331L11.1088 1.93967H12.1038C12.4347 1.93967 12.6892 1.99663 12.8661 2.11055C13.0431 2.22448 13.1303 2.41475 13.1303 2.68017C13.1303 2.87892 13.083 3.05466 12.9873 3.20494C12.8916 3.35643 12.751 3.47399 12.5668 3.55882C12.3825 3.64366 12.1571 3.68607 11.8917 3.68607" fill="#A70123"/>
<path id="Vector_3" d="M16.8028 7.53165C17.3263 7.7813 18.0002 7.90734 18.8255 7.90734C19.5914 7.90734 20.2265 7.78858 20.7307 7.55346C21.2348 7.31834 21.6372 6.97173 21.9353 6.51483C22.2335 6.05793 22.4565 5.48832 22.6031 4.80236L23.5872 0.0939866H21.1779L20.2277 4.61451C20.1538 4.95385 20.0665 5.22048 19.9623 5.4156C19.8593 5.61072 19.7272 5.75252 19.5648 5.84099C19.4024 5.92946 19.2 5.9731 18.9564 5.9731C18.7128 5.9731 18.5019 5.92583 18.3431 5.82888C18.1844 5.73313 18.0802 5.58406 18.028 5.38167C17.9771 5.17928 17.9832 4.92355 18.0511 4.6133L19.0121 0.0927734H16.6028L15.6417 4.6133C15.4866 5.32713 15.5108 5.93068 15.7132 6.4203C15.9156 6.90992 16.278 7.27956 16.8016 7.53043" fill="#A70123"/>
<path id="Vector_4" d="M30.9371 1.99373L31.3237 0.181885H25.201L23.5879 7.8183H29.9312L30.3178 6.00646H26.3838L26.6274 4.84542H30.0196L30.3844 3.16567H26.9801L27.2346 1.99373H30.9371Z" fill="#A70123"/>
<path id="Vector_5" d="M36.9669 2.92133C36.6457 2.74439 36.2748 2.65592 35.8555 2.65592C35.5234 2.65592 35.2205 2.69591 34.9478 2.77711C34.6751 2.85952 34.4206 2.97708 34.1855 3.13221H34.1527L34.5612 1.8924H37.8698L38.2454 0.112061H32.2136L32.1833 0.205382C32.6475 0.402928 32.9057 0.927694 32.7469 1.48276C32.7202 1.57608 31.7507 4.49322 31.7507 4.49322H33.7322C33.8716 4.36112 34.0231 4.26052 34.1867 4.19386C34.3491 4.12842 34.5478 4.09449 34.783 4.09449C34.9744 4.09449 35.1429 4.12963 35.2859 4.19871C35.4301 4.269 35.5392 4.37445 35.6131 4.51503C35.6871 4.6544 35.7234 4.81802 35.7234 5.00102C35.7234 5.2228 35.6786 5.41913 35.5901 5.59365C35.5016 5.76696 35.3707 5.90149 35.1974 5.99723C35.0241 6.09418 34.8193 6.14145 34.583 6.14145C34.2727 6.14145 34.0279 6.08691 33.8473 5.97541C33.6668 5.86513 33.5613 5.71 33.5322 5.51124H31.3301C31.2926 5.98268 31.3895 6.39959 31.6186 6.76075C31.8476 7.12312 32.2052 7.40065 32.6924 7.59577C33.1783 7.7909 33.7795 7.88785 34.4957 7.88785C35.212 7.88785 35.8083 7.76302 36.3318 7.51215C36.8554 7.26128 37.2614 6.90861 37.5498 6.45534C37.8382 6.00208 37.9813 5.47973 37.9813 4.88952C37.9813 4.43262 37.8928 4.03389 37.7158 3.69455C37.5389 3.35642 37.2904 3.09706 36.9693 2.92012" fill="#A70123"/>
<path id="Vector_6" d="M39.9113 7.59642C39.3768 7.32737 38.9648 6.94682 38.6775 6.45599C38.3891 5.96636 38.2461 5.39676 38.2461 4.74716C38.2461 3.8479 38.4351 3.0359 38.8145 2.31358C39.195 1.59006 39.7186 1.02409 40.3852 0.614453C41.0529 0.20603 41.7995 0 42.626 0C43.2599 0 43.821 0.101804 44.307 0.304197C44.7942 0.507803 45.1832 0.815634 45.4753 1.22769C45.7662 1.64096 45.9419 2.14634 46.0001 2.74382H43.6768C43.6174 2.48568 43.4962 2.28692 43.3108 2.14634C43.1266 2.00696 42.8793 1.93667 42.5703 1.93667C42.2006 1.93667 41.8783 2.05787 41.6019 2.30147C41.3256 2.54507 41.1111 2.8735 40.9596 3.28677C40.8081 3.70004 40.733 4.16179 40.733 4.66959C40.733 4.94228 40.7839 5.18951 40.8821 5.41008C40.9814 5.63187 41.1329 5.80275 41.3353 5.92516C41.5377 6.04635 41.7874 6.10695 42.0819 6.10695C42.3255 6.10695 42.5509 6.05726 42.7569 5.95788C42.963 5.8585 43.1338 5.71307 43.2659 5.52159C43.3993 5.3301 43.4841 5.09741 43.5204 4.82472L44.4609 5.03439H42.094L42.4139 3.51946H45.9989L45.9334 4.07211C45.8364 4.86956 45.6159 5.56279 45.2693 6.153C44.9227 6.74322 44.4561 7.19769 43.8707 7.51886C43.2841 7.83881 42.5969 8 41.8068 8C41.076 8 40.4445 7.86547 39.9101 7.59521" fill="#A70123"/>
</g>
</svg>
